<?xml version="1.0" encoding="utf-8"?>
<!-- Generator: Adobe Illustrator 24.2.0, SVG Export Plug-In . SVG Version: 6.00 Build 0)  -->
<svg version="1.1" id="Background_2" xmlns="http://www.w3.org/2000/svg" xmlns:xlink="http://www.w3.org/1999/xlink" x="0px"
	 y="0px" viewBox="0 0 750 500" style="enable-background:new 0 0 750 500;" xml:space="preserve">
<style type="text/css">
	.st0{fill:#FFFFFC;}
	.st1{fill:#F5F5F5;}
	.st2{fill:#E8E8E8;}
	.st3{display:none;fill:#E8E8E8;}
</style>
<image style="display:none;overflow:visible;opacity:0.1;enable-background:new    ;" width="217" height="124" xlink:href="310686F7.png"  transform="matrix(1 0 0 1 262 196)">
</image>
<g>
	<g>
		<g>
			<path class="st0" d="M463.3,295.6c0,0-0.1,0.1-0.1,0.1C463.2,295.6,463.3,295.6,463.3,295.6z"/>
			<path class="st0" d="M469.8,261.5c-2.4-3.5-5.5-6.3-9.4-8.2c-0.6-0.3-1.2-0.6-1.8-0.8c0.7-4.3,0.4-8.8-1.1-13c-1-2-2-4-3-6
				c-2.6-3.8-6-6.8-10.1-8.9c-2.5-1.5-5.2-2.5-8.2-3.1c-5.5-1.1-11.3-0.3-16.4,2.1c-0.2-0.6-0.4-1.1-0.6-1.7
				c-0.1-0.3-0.2-0.5-0.3-0.8c-1.3-2.6-2.6-5.2-3.9-7.8c-3.4-5-7.8-8.8-13.2-11.5c-11-5.4-24.3-4.5-34.4,2.3
				c-5.8,3.9-10.2,9.4-12.7,15.8c-0.1,0-0.1-0.1-0.2-0.1c-0.4-0.2-0.8-0.4-1.2-0.7c-0.1,0-0.1-0.1-0.2-0.1c-2.3-0.8-4.5-1.5-6.8-2.3
				c-4.7-0.9-9.4-0.6-13.9,1c-2.2,0.6-4.3,1.6-6.1,3.1c-1.7,1.5-3.4,3-5.1,4.5c-2.4,2.8-4.2,5.9-5.3,9.3c-1.4-0.2-2.8-0.2-4.2-0.1
				c-0.3,0-0.5,0-0.8,0c-1.6,0.3-3.2,0.7-4.8,1c-3.1,1.1-5.7,2.9-7.9,5.3c-0.9,1.3-1.8,2.7-2.7,4c-0.4,0.8-0.7,1.6-1,2.5
				c-1.4-0.1-2.7-0.1-4.1,0c-2.4,0.5-4.8,1-7.2,1.5c-4.7,1.7-8.7,4.4-12,8.1c-5,5.7-7.6,13.4-7,21c0.6,7.4,4.1,14.3,9.6,19.2
				c2,1.4,4.1,2.8,6.1,4.1c4.7,2.3,9.7,3.3,14.9,2.9c2.4-0.5,4.8-1,7.2-1.5c3-1,5.6-2.5,8-4.4c1.8,1.7,3.8,3.1,6.1,4.2
				c4.3,2.1,8.8,3,13.6,2.6c5.8-0.4,11.2-2.9,15.5-6.7c1.7,3.3,4,6.2,6.8,8.7c4.7,3.6,8.1,5.9,14.1,7c7.6,1.4,15.5-0.1,21.9-4.5
				c1.9-1.1,3.5-2.5,4.8-4c2.4,3.2,5.3,5.8,9,7.6c4.1,2,8.4,2.8,12.9,2.5c0,0,0.1,0,0.1,0c2.1-0.4,4.1-0.9,6.2-1.3
				c4-1.4,7.5-3.8,10.3-7c1.2-1.8,2.4-3.5,3.5-5.3c0.8-1.6,1.4-3.3,1.8-5.1c2.2,1.2,4.6,2.1,7.1,2.6c7,0.7,6.3,0.6,13.1-1
				c1.8-0.4,6.3-3.1,6.2-3c3.5-2.4,6.2-5.5,8.1-9.3c0.9-2.1,1.6-4.2,2.1-6.4C475,273.7,473.3,266.7,469.8,261.5z"/>
		</g>
		<path class="st1" d="M323.8,234.8c-0.2-5.3,3.1-10.5,8-12.5s10.9-0.8,14.5,3c-4.2-1.1-8.4-0.4-12.5,1.2
			C329.7,228,326.2,231.1,323.8,234.8z"/>
		<path class="st1" d="M272.3,266.7c-0.2-5.3,3.1-10.5,8-12.5s10.9-0.8,14.5,3c-4.2-1.1-8.4-0.4-12.5,1.2
			C278.2,259.9,274.7,263,272.3,266.7z"/>
		<path class="st1" d="M427,230.6c4.1-3.3,10.3-3.8,14.8-1.1c4.5,2.6,7.2,8.3,6.3,13.4c-1.6-4.1-4.7-7-8.4-9.3
			C436,231.3,431.4,230.3,427,230.6z"/>
		<path class="st1" d="M374.9,209.6c4.3-5.9,12.4-8.6,19.4-6.7c7,2,12.5,8.5,13.1,15.8c-3.6-4.9-8.8-7.7-14.5-9.5
			C387.2,207.4,380.7,207.7,374.9,209.6z"/>
		<path class="st2" d="M358.7,281.5c-2.4,4.6-7.9,7.4-13,6.8c-5.2-0.6-9.7-4.7-11-9.7c3,3.1,7,4.5,11.3,5.2
			C350.3,284.4,354.9,283.5,358.7,281.5z"/>
		<path class="st2" d="M441,279.7c-0.8,5.1-5.1,9.5-10.1,10.6c-5.1,1-10.7-1.3-13.5-5.7c3.9,1.9,8.1,2,12.3,1.3
			C434,285.1,438,282.8,441,279.7z"/>
		<path class="st2" d="M414.3,251.9c-1.1,7-6.9,13-13.9,14.5c-7,1.4-14.6-1.8-18.4-7.8c5.3,2.6,11,2.7,16.9,1.8
			C404.6,259.3,410.1,256.1,414.3,251.9z"/>
		<path class="st2" d="M463.3,295.6c0,0-0.1,0.1-0.1,0.1C463.2,295.6,463.3,295.6,463.3,295.6z"/>
		<path class="st3" d="M469.8,261.5c-1.4-2.1-3.1-3.9-5-5.4c0.2,1.4,0.4,2.9,0.6,4.3c0,0.2,0,0.3,0,0.5c0.2,6.7-2.9,13.5-7.5,18.2
			c-4.8,4.8-11.4,7.5-18.2,7.5c-3.5,0-6.9-0.7-10.1-2.1c-3.8,9.5-13.1,16.3-23.9,16.3c-6.1,0-11.8-2.2-16.2-5.9
			c-4.6,4.2-10.7,6.8-17.3,6.8c-11,0-20.6-7.2-24.2-17.1c-4.7,5.5-11.7,9-19.4,9c-9.4,0-17.7-5.3-22.2-13c-0.9,1.3-1.9,2.5-3,3.7
			c-3.2,3.2-7,5.4-11.4,6.7c-2.3,0.3-4.6,0.6-6.9,0.9c-2.4-0.2-4.8-0.3-7.1-1c-5.4-1.5-7.3-3.2-11.5-6.7c-0.4-0.3-0.8-0.7-1.1-1.1
			c1.5,5.3,4.5,10.1,8.6,13.7c2,1.4,4.1,2.8,6.1,4.1c4.7,2.3,9.7,3.3,14.9,2.9c2.4-0.5,4.8-1,7.2-1.5c3-1,5.6-2.5,8-4.4
			c1.8,1.7,3.8,3.1,6.1,4.2c4.3,2.1,8.8,3,13.6,2.6c5.8-0.4,11.2-2.9,15.5-6.7c1.7,3.3,4,6.2,6.8,8.7c4.7,3.6,8.1,5.9,14.1,7
			c7.6,1.4,15.5-0.1,21.9-4.5c1.9-1.1,3.5-2.5,4.8-4c2.4,3.2,5.3,5.8,9,7.6c4.1,2,8.4,2.8,12.9,2.5c0,0,0.1,0,0.1,0
			c2.1-0.4,4.1-0.9,6.2-1.3c4-1.4,7.5-3.8,10.3-7c1.2-1.8,2.4-3.5,3.5-5.3c0.8-1.6,1.4-3.3,1.8-5.1c2.2,1.2,4.6,2.1,7.1,2.6
			c7,0.7,6.3,0.6,13.1-1c1.8-0.4,6.3-3.1,6.2-3c3.5-2.4,6.2-5.5,8.1-9.3c0.9-2.1,1.6-4.2,2.1-6.4C475,273.7,473.3,266.7,469.8,261.5
			z"/>
	</g>
</g>
</svg>
